<?xml version="1.0" encoding="utf-8"?>
<!-- Generator: Adobe Illustrator 19.2.1, SVG Export Plug-In . SVG Version: 6.00 Build 0)  -->
<svg version="1.1" xmlns="http://www.w3.org/2000/svg" xmlns:xlink="http://www.w3.org/1999/xlink" x="0px" y="0px"
	 viewBox="0 0 237.6 87.8" style="enable-background:new 0 0 237.6 87.8;" xml:space="preserve">
<style type="text/css">
	.st0{fill:#FFFFFF;}
</style>
<g id="Layer_1">
	<path class="st0" d="M227.1,77.6H2.1V1.7h225V77.6z M229.1,0H0v79.3h229.1V0z"/>
	<path class="st0" d="M235.5,86.1h-225v-76h225V86.1z M237.6,8.4H8.4v79.3h229.2V8.4z"/>
	<g>
		<polygon class="st0" points="112.9,18.6 103.3,18.6 61.1,18.6 61.1,27 103.3,27 112.9,27 137.1,27 137.1,18.6 		"/>
		<polygon class="st0" points="179,35.4 166.7,35.4 154,47.7 153.9,18.6 145.5,18.6 145.5,55.7 145.5,63 145.5,69.2 154,69.2 
			154,59.3 160.3,53.3 169.5,69.2 179.2,69.2 166.5,47.3 		"/>
		<path class="st0" d="M193.3,35.4h-8.4v8.4v16.9v8.4h8.4h25.3v-8.4h-17.7l17.7-16.9h0v0v0v-8.4H193.3z M193.3,56.3V43.9h13.1
			L193.3,56.3z"/>
		<path class="st0" d="M111.7,35.4h-8.4v8.4v16.9v8.4h8.4h16.9h8.4h0V43.9v-8.3v-0.2H111.7z M128.6,60.8h-16.9V43.9h16.9V60.8z"/>
		<path class="st0" d="M69.5,35.4h-8.4v8.4v16.9v8.4h8.4h16.9h8.4h0V43.9v-8.3v-0.2H69.5z M86.4,60.8H69.5V43.9h16.9V60.8z"/>
		<polygon class="st0" points="27.3,69.2 27.3,36.8 44.2,69.2 44.2,69.2 52.7,69.2 52.7,18.6 44.2,18.6 44.2,50.9 27.3,18.6 
			27.3,18.6 18.9,18.6 18.9,69.2 		"/>
	</g>
</g>
<g id="Layer_5">
</g>
</svg>
