<svg id="Layer_1" data-name="Layer 1" xmlns="http://www.w3.org/2000/svg" viewBox="0 0 238.55 89.47"><title>logocolor</title><polygon points="113.45 19.42 103.83 19.42 61.63 19.42 61.63 27.86 103.83 27.86 113.45 27.86 137.59 27.86 137.59 19.42 113.45 19.42" fill="#023649"/><polygon points="179.49 36.31 167.27 36.31 154.48 48.52 154.46 19.42 146.02 19.42 146.04 56.58 146.04 63.9 146.04 70.07 154.48 70.07 154.48 60.19 160.79 54.17 169.98 70.07 179.72 70.07 167.07 48.17 179.49 36.31" fill="#023649"/><path d="M193.82,36.31h-8.44V70.07h33.76V61.63H201.41l17.74-16.88h0V36.31H193.82Zm0,20.89V44.75H206.9Z" transform="translate(0 0)" fill="#023649"/><path d="M112.27,36.31h-8.44V70.07h33.76V36.31H112.27Zm16.88,25.32H112.27V44.75h16.88V61.63Z" transform="translate(0 0)" fill="#c92128"/><path d="M70.07,36.31H61.63V70.07H95.39V36.31H70.07ZM86.95,61.63H70.07V44.75H86.95V61.63Z" transform="translate(0 0)" fill="#c92128"/><polygon points="27.86 70.07 27.86 37.68 44.74 70.07 44.74 70.07 53.19 70.07 53.19 19.42 44.74 19.42 44.74 51.81 27.86 19.43 27.86 19.42 19.42 19.42 19.42 70.07 27.86 70.07" fill="#023649"/><path d="M230.13,80.91H0V0H230.13V80.91ZM3,77.91H227.13V3H3V77.91Z" transform="translate(0 0)" fill="#c92128"/><path d="M238.55,89.47H8.42V8.56H238.55V89.47Zm-227.13-3H235.55V11.56H11.42V86.47Z" transform="translate(0 0)" fill="#c92128"/></svg>